C:\Users\u0145647\OneDrive - KU Leuven\KU Leuven\BCN_Workshop\ParameterEstimation\Data_CP1\IPSA\JointAngles\JointAngles_segment_2.mot
version=1
nRows=105
nColumns=4
inDegrees=yes
endheader
                time	         pelvis_tilt	       hip_flexion_l	        knee_angle_l	
          4.25000000	         90.00000000	         90.00000000	        -72.96879660	
          4.25500000	         90.00000000	         90.00000000	        -72.90887964	
          4.26000000	         90.00000000	         90.00000000	        -72.84828380	
          4.26500000	         90.00000000	         90.00000000	        -72.78695721	
          4.27000000	         90.00000000	         90.00000000	        -72.72485457	
          4.27500000	         90.00000000	         90.00000000	        -72.66194046	
          4.28000000	         90.00000000	         90.00000000	        -72.59819458	
          4.28500000	         90.00000000	         90.00000000	        -72.53361422	
          4.29000000	         90.00000000	         90.00000000	        -72.46821345	
          4.29500000	         90.00000000	         90.00000000	        -72.40201927	
          4.30000000	         90.00000000	         90.00000000	        -72.33506632	
          4.30500000	         90.00000000	         90.00000000	        -72.26739382	
          4.31000000	         90.00000000	         90.00000000	        -72.19904274	
          4.31500000	         90.00000000	         90.00000000	        -72.13005047	
          4.32000000	         90.00000000	         90.00000000	        -72.06044558	
          4.32500000	         90.00000000	         90.00000000	        -71.99024530	
          4.33000000	         90.00000000	         90.00000000	        -71.91945273	
          4.33500000	         90.00000000	         90.00000000	        -71.84805316	
          4.34000000	         90.00000000	         90.00000000	        -71.77601195	
          4.34500000	         90.00000000	         90.00000000	        -71.70327513	
          4.35000000	         90.00000000	         90.00000000	        -71.62977029	
          4.35500000	         90.00000000	         90.00000000	        -71.55540667	
          4.36000000	         90.00000000	         90.00000000	        -71.48007655	
          4.36500000	         90.00000000	         90.00000000	        -71.40365750	
          4.37000000	         90.00000000	         90.00000000	        -71.32601919	
          4.37500000	         90.00000000	         90.00000000	        -71.24703450	
          4.38000000	         90.00000000	         90.00000000	        -71.16658835	
          4.38500000	         90.00000000	         90.00000000	        -71.08458314	
          4.39000000	         90.00000000	         90.00000000	        -71.00094358	
          4.39500000	         90.00000000	         90.00000000	        -70.91561968	
          4.40000000	         90.00000000	         90.00000000	        -70.82858383	
          4.40500000	         90.00000000	         90.00000000	        -70.73982829	
          4.41000000	         90.00000000	         90.00000000	        -70.64936425	
          4.41500000	         90.00000000	         90.00000000	        -70.55721895	
          4.42000000	         90.00000000	         90.00000000	        -70.46343429	
          4.42500000	         90.00000000	         90.00000000	        -70.36806707	
          4.43000000	         90.00000000	         90.00000000	        -70.27118652	
          4.43500000	         90.00000000	         90.00000000	        -70.17287461	
          4.44000000	         90.00000000	         90.00000000	        -70.07322426	
          4.44500000	         90.00000000	         90.00000000	        -69.97233965	
          4.45000000	         90.00000000	         90.00000000	        -69.87033398	
          4.45500000	         90.00000000	         90.00000000	        -69.76732589	
          4.46000000	         90.00000000	         90.00000000	        -69.66343968	
          4.46500000	         90.00000000	         90.00000000	        -69.55880368	
          4.47000000	         90.00000000	         90.00000000	        -69.45354356	
          4.47500000	         90.00000000	         90.00000000	        -69.34777566	
          4.48000000	         90.00000000	         90.00000000	        -69.24160057	
          4.48500000	         90.00000000	         90.00000000	        -69.13509814	
          4.49000000	         90.00000000	         90.00000000	        -69.02832390	
          4.49500000	         90.00000000	         90.00000000	        -68.92130592	
          4.50000000	         90.00000000	         90.00000000	        -68.81404564	
          4.50500000	         90.00000000	         90.00000000	        -68.70652361	
          4.51000000	         90.00000000	         90.00000000	        -68.59870462	
          4.51500000	         90.00000000	         90.00000000	        -68.49053972	
          4.52000000	         90.00000000	         90.00000000	        -68.38196922	
          4.52500000	         90.00000000	         90.00000000	        -68.27292681	
          4.53000000	         90.00000000	         90.00000000	        -68.16334350	
          4.53500000	         90.00000000	         90.00000000	        -68.05315020	
          4.54000000	         90.00000000	         90.00000000	        -67.94228019	
          4.54500000	         90.00000000	         90.00000000	        -67.83067293	
          4.55000000	         90.00000000	         90.00000000	        -67.71827499	
          4.55500000	         90.00000000	         90.00000000	        -67.60504178	
          4.56000000	         90.00000000	         90.00000000	        -67.49094015	
          4.56500000	         90.00000000	         90.00000000	        -67.37595275	
          4.57000000	         90.00000000	         90.00000000	        -67.26008267	
          4.57500000	         90.00000000	         90.00000000	        -67.14335475	
          4.58000000	         90.00000000	         90.00000000	        -67.02581937	
          4.58500000	         90.00000000	         90.00000000	        -66.90755630	
          4.59000000	         90.00000000	         90.00000000	        -66.78867890	
          4.59500000	         90.00000000	         90.00000000	        -66.66933636	
          4.60000000	         90.00000000	         90.00000000	        -66.54971046	
          4.60500000	         90.00000000	         90.00000000	        -66.43001022	
          4.61000000	         90.00000000	         90.00000000	        -66.31046592	
          4.61500000	         90.00000000	         90.00000000	        -66.19132136	
          4.62000000	         90.00000000	         90.00000000	        -66.07282431	
          4.62500000	         90.00000000	         90.00000000	        -65.95522019	
          4.63000000	         90.00000000	         90.00000000	        -65.83874540	
          4.63500000	         90.00000000	         90.00000000	        -65.72362132	
          4.64000000	         90.00000000	         90.00000000	        -65.61005212	
          4.64500000	         90.00000000	         90.00000000	        -65.49821959	
          4.65000000	         90.00000000	         90.00000000	        -65.38827221	
          4.65500000	         90.00000000	         90.00000000	        -65.28031755	
          4.66000000	         90.00000000	         90.00000000	        -65.17442100	
          4.66500000	         90.00000000	         90.00000000	        -65.07060720	
          4.67000000	         90.00000000	         90.00000000	        -64.96886663	
          4.67500000	         90.00000000	         90.00000000	        -64.86916392	
          4.68000000	         90.00000000	         90.00000000	        -64.77144561	
          4.68500000	         90.00000000	         90.00000000	        -64.67564425	
          4.69000000	         90.00000000	         90.00000000	        -64.58168316	
          4.69500000	         90.00000000	         90.00000000	        -64.48948340	
          4.70000000	         90.00000000	         90.00000000	        -64.39897009	
          4.70500000	         90.00000000	         90.00000000	        -64.31007834	
          4.71000000	         90.00000000	         90.00000000	        -64.22275601	
          4.71500000	         90.00000000	         90.00000000	        -64.13696614	
          4.72000000	         90.00000000	         90.00000000	        -64.05268928	
          4.72500000	         90.00000000	         90.00000000	        -63.96992073	
          4.73000000	         90.00000000	         90.00000000	        -63.88866869	
          4.73500000	         90.00000000	         90.00000000	        -63.80895247	
          4.74000000	         90.00000000	         90.00000000	        -63.73079781	
          4.74500000	         90.00000000	         90.00000000	        -63.65423440	
          4.75000000	         90.00000000	         90.00000000	        -63.57929404	
          4.75500000	         90.00000000	         90.00000000	        -63.50600914	
          4.76000000	         90.00000000	         90.00000000	        -63.43441575	
          4.76500000	         90.00000000	         90.00000000	        -63.36455648	
          4.77000000	         90.00000000	         90.00000000	        -63.29647910	
